<mxfile host="Electron" modified="2024-03-31T07:36:12.988Z" agent="Mozilla/5.0 (Windows NT 10.0; Win64; x64) AppleWebKit/537.36 (KHTML, like Gecko) draw.io/24.1.0 Chrome/120.0.6099.109 Electron/28.1.0 Safari/537.36" etag="jR7vdabHcFX5tZKcw5lu" version="24.1.0" type="device">
  <diagram name="Страница — 1" id="sLSP0RFL2r5tdLfpW7rj">
    <mxGraphModel dx="1235" dy="731" grid="1" gridSize="10" guides="1" tooltips="1" connect="1" arrows="1" fold="1" page="1" pageScale="1" pageWidth="827" pageHeight="1169" math="0" shadow="0">
      <root>
        <mxCell id="0" />
        <mxCell id="1" parent="0" />
        <mxCell id="Leq0V2gcuBvTeHx4sZll-52" style="edgeStyle=orthogonalEdgeStyle;rounded=0;orthogonalLoop=1;jettySize=auto;html=1;entryX=0.5;entryY=0;entryDx=0;entryDy=0;" edge="1" parent="1" source="Leq0V2gcuBvTeHx4sZll-31" target="Leq0V2gcuBvTeHx4sZll-41">
          <mxGeometry relative="1" as="geometry" />
        </mxCell>
        <mxCell id="Leq0V2gcuBvTeHx4sZll-53" style="edgeStyle=orthogonalEdgeStyle;rounded=0;orthogonalLoop=1;jettySize=auto;html=1;entryX=0.5;entryY=0;entryDx=0;entryDy=0;" edge="1" parent="1" source="Leq0V2gcuBvTeHx4sZll-31" target="Leq0V2gcuBvTeHx4sZll-42">
          <mxGeometry relative="1" as="geometry" />
        </mxCell>
        <mxCell id="Leq0V2gcuBvTeHx4sZll-31" value="Animals" style="rounded=1;arcSize=10;whiteSpace=wrap;html=1;align=center;" vertex="1" parent="1">
          <mxGeometry x="360" y="40" width="120" height="60" as="geometry" />
        </mxCell>
        <mxCell id="Leq0V2gcuBvTeHx4sZll-54" style="edgeStyle=orthogonalEdgeStyle;rounded=0;orthogonalLoop=1;jettySize=auto;html=1;entryX=1;entryY=0.5;entryDx=0;entryDy=0;" edge="1" parent="1" source="Leq0V2gcuBvTeHx4sZll-41" target="Leq0V2gcuBvTeHx4sZll-43">
          <mxGeometry relative="1" as="geometry" />
        </mxCell>
        <mxCell id="Leq0V2gcuBvTeHx4sZll-55" style="edgeStyle=orthogonalEdgeStyle;rounded=0;orthogonalLoop=1;jettySize=auto;html=1;entryX=1;entryY=0.5;entryDx=0;entryDy=0;" edge="1" parent="1" source="Leq0V2gcuBvTeHx4sZll-41" target="Leq0V2gcuBvTeHx4sZll-44">
          <mxGeometry relative="1" as="geometry" />
        </mxCell>
        <mxCell id="Leq0V2gcuBvTeHx4sZll-56" style="edgeStyle=orthogonalEdgeStyle;rounded=0;orthogonalLoop=1;jettySize=auto;html=1;entryX=1;entryY=0.5;entryDx=0;entryDy=0;" edge="1" parent="1" source="Leq0V2gcuBvTeHx4sZll-41" target="Leq0V2gcuBvTeHx4sZll-45">
          <mxGeometry relative="1" as="geometry" />
        </mxCell>
        <mxCell id="Leq0V2gcuBvTeHx4sZll-41" value="Pets" style="rounded=1;arcSize=10;whiteSpace=wrap;html=1;align=center;" vertex="1" parent="1">
          <mxGeometry x="280" y="160" width="120" height="60" as="geometry" />
        </mxCell>
        <mxCell id="Leq0V2gcuBvTeHx4sZll-57" style="edgeStyle=orthogonalEdgeStyle;rounded=0;orthogonalLoop=1;jettySize=auto;html=1;entryX=0;entryY=0.5;entryDx=0;entryDy=0;" edge="1" parent="1" source="Leq0V2gcuBvTeHx4sZll-42" target="Leq0V2gcuBvTeHx4sZll-46">
          <mxGeometry relative="1" as="geometry" />
        </mxCell>
        <mxCell id="Leq0V2gcuBvTeHx4sZll-58" style="edgeStyle=orthogonalEdgeStyle;rounded=0;orthogonalLoop=1;jettySize=auto;html=1;entryX=0;entryY=0.5;entryDx=0;entryDy=0;" edge="1" parent="1" source="Leq0V2gcuBvTeHx4sZll-42" target="Leq0V2gcuBvTeHx4sZll-47">
          <mxGeometry relative="1" as="geometry" />
        </mxCell>
        <mxCell id="Leq0V2gcuBvTeHx4sZll-59" style="edgeStyle=orthogonalEdgeStyle;rounded=0;orthogonalLoop=1;jettySize=auto;html=1;entryX=0;entryY=0.5;entryDx=0;entryDy=0;" edge="1" parent="1" source="Leq0V2gcuBvTeHx4sZll-42" target="Leq0V2gcuBvTeHx4sZll-48">
          <mxGeometry relative="1" as="geometry" />
        </mxCell>
        <mxCell id="Leq0V2gcuBvTeHx4sZll-42" value="PackAnimals" style="rounded=1;arcSize=10;whiteSpace=wrap;html=1;align=center;" vertex="1" parent="1">
          <mxGeometry x="440" y="160" width="120" height="60" as="geometry" />
        </mxCell>
        <mxCell id="Leq0V2gcuBvTeHx4sZll-64" style="edgeStyle=orthogonalEdgeStyle;rounded=0;orthogonalLoop=1;jettySize=auto;html=1;entryX=0.5;entryY=0;entryDx=0;entryDy=0;" edge="1" parent="1" source="Leq0V2gcuBvTeHx4sZll-43" target="Leq0V2gcuBvTeHx4sZll-62">
          <mxGeometry relative="1" as="geometry" />
        </mxCell>
        <mxCell id="Leq0V2gcuBvTeHx4sZll-43" value="Dogs" style="rounded=1;arcSize=10;whiteSpace=wrap;html=1;align=center;" vertex="1" parent="1">
          <mxGeometry x="160" y="280" width="120" height="60" as="geometry" />
        </mxCell>
        <mxCell id="Leq0V2gcuBvTeHx4sZll-65" style="edgeStyle=orthogonalEdgeStyle;rounded=0;orthogonalLoop=1;jettySize=auto;html=1;entryX=1;entryY=0.5;entryDx=0;entryDy=0;" edge="1" parent="1" source="Leq0V2gcuBvTeHx4sZll-44" target="Leq0V2gcuBvTeHx4sZll-62">
          <mxGeometry relative="1" as="geometry" />
        </mxCell>
        <mxCell id="Leq0V2gcuBvTeHx4sZll-44" value="Cats" style="rounded=1;arcSize=10;whiteSpace=wrap;html=1;align=center;" vertex="1" parent="1">
          <mxGeometry x="160" y="400" width="120" height="60" as="geometry" />
        </mxCell>
        <mxCell id="Leq0V2gcuBvTeHx4sZll-66" style="edgeStyle=orthogonalEdgeStyle;rounded=0;orthogonalLoop=1;jettySize=auto;html=1;entryX=0.5;entryY=1;entryDx=0;entryDy=0;" edge="1" parent="1" source="Leq0V2gcuBvTeHx4sZll-45" target="Leq0V2gcuBvTeHx4sZll-62">
          <mxGeometry relative="1" as="geometry" />
        </mxCell>
        <mxCell id="Leq0V2gcuBvTeHx4sZll-45" value="Hamsters" style="rounded=1;arcSize=10;whiteSpace=wrap;html=1;align=center;" vertex="1" parent="1">
          <mxGeometry x="160" y="520" width="120" height="60" as="geometry" />
        </mxCell>
        <mxCell id="Leq0V2gcuBvTeHx4sZll-67" style="edgeStyle=orthogonalEdgeStyle;rounded=0;orthogonalLoop=1;jettySize=auto;html=1;entryX=0.5;entryY=0;entryDx=0;entryDy=0;" edge="1" parent="1" source="Leq0V2gcuBvTeHx4sZll-46" target="Leq0V2gcuBvTeHx4sZll-63">
          <mxGeometry relative="1" as="geometry" />
        </mxCell>
        <mxCell id="Leq0V2gcuBvTeHx4sZll-46" value="Horses" style="rounded=1;arcSize=10;whiteSpace=wrap;html=1;align=center;" vertex="1" parent="1">
          <mxGeometry x="560" y="280" width="120" height="60" as="geometry" />
        </mxCell>
        <mxCell id="Leq0V2gcuBvTeHx4sZll-68" style="edgeStyle=orthogonalEdgeStyle;rounded=0;orthogonalLoop=1;jettySize=auto;html=1;entryX=0;entryY=0.5;entryDx=0;entryDy=0;" edge="1" parent="1" source="Leq0V2gcuBvTeHx4sZll-47" target="Leq0V2gcuBvTeHx4sZll-63">
          <mxGeometry relative="1" as="geometry" />
        </mxCell>
        <mxCell id="Leq0V2gcuBvTeHx4sZll-47" value="Camels" style="rounded=1;arcSize=10;whiteSpace=wrap;html=1;align=center;" vertex="1" parent="1">
          <mxGeometry x="560" y="400" width="120" height="60" as="geometry" />
        </mxCell>
        <mxCell id="Leq0V2gcuBvTeHx4sZll-69" style="edgeStyle=orthogonalEdgeStyle;rounded=0;orthogonalLoop=1;jettySize=auto;html=1;entryX=0.5;entryY=1;entryDx=0;entryDy=0;" edge="1" parent="1" source="Leq0V2gcuBvTeHx4sZll-48" target="Leq0V2gcuBvTeHx4sZll-63">
          <mxGeometry relative="1" as="geometry" />
        </mxCell>
        <mxCell id="Leq0V2gcuBvTeHx4sZll-48" value="Donkeys" style="rounded=1;arcSize=10;whiteSpace=wrap;html=1;align=center;" vertex="1" parent="1">
          <mxGeometry x="560" y="520" width="120" height="60" as="geometry" />
        </mxCell>
        <mxCell id="Leq0V2gcuBvTeHx4sZll-62" value="id&lt;div&gt;&lt;br&gt;&lt;div&gt;Name&lt;/div&gt;&lt;div&gt;&lt;br&gt;&lt;/div&gt;&lt;div&gt;BrithDate&lt;/div&gt;&lt;div&gt;&lt;br&gt;&lt;/div&gt;&lt;div&gt;Commands&lt;/div&gt;&lt;div&gt;&lt;br&gt;&lt;/div&gt;&lt;div&gt;PetsTypeID&lt;/div&gt;&lt;/div&gt;" style="rounded=1;arcSize=10;whiteSpace=wrap;html=1;align=center;" vertex="1" parent="1">
          <mxGeometry x="20" y="330" width="100" height="200" as="geometry" />
        </mxCell>
        <mxCell id="Leq0V2gcuBvTeHx4sZll-63" value="id&lt;div&gt;&lt;br&gt;&lt;div&gt;Name&lt;/div&gt;&lt;div&gt;&lt;br&gt;&lt;/div&gt;&lt;div&gt;BrithDate&lt;/div&gt;&lt;div&gt;&lt;br&gt;&lt;/div&gt;&lt;div&gt;Commands&lt;/div&gt;&lt;div&gt;&lt;br&gt;&lt;/div&gt;&lt;div&gt;PackAnimals&lt;span style=&quot;background-color: initial;&quot;&gt;TypeID&lt;/span&gt;&lt;/div&gt;&lt;/div&gt;" style="rounded=1;arcSize=10;whiteSpace=wrap;html=1;align=center;" vertex="1" parent="1">
          <mxGeometry x="720" y="330" width="110" height="200" as="geometry" />
        </mxCell>
      </root>
    </mxGraphModel>
  </diagram>
</mxfile>
